<svg width="125" height="51" viewBox="0 0 125 51" fill="none" xmlns="http://www.w3.org/2000/svg">
<mask id="path-1-inside-1_1115_1354" fill="white">
<path fill-rule="evenodd" clip-rule="evenodd" d="M23.2312 0.0198824C5.85511 0.418314 0 6.86807 0 25.0413C0 43.2144 5.85511 49.6641 23.2312 50.0626V50.0825H96.0015V50.0266C112.485 49.3689 118.081 42.8068 118.081 25.0413C118.081 7.27561 112.485 0.713491 96.0015 0.0558816V0H93.0675H59.0405H25.0135H23.2312V0.0198824Z"/>
</mask>
<path fill-rule="evenodd" clip-rule="evenodd" d="M23.2312 0.0198824C5.85511 0.418314 0 6.86807 0 25.0413C0 43.2144 5.85511 49.6641 23.2312 50.0626V50.0825H96.0015V50.0266C112.485 49.3689 118.081 42.8068 118.081 25.0413C118.081 7.27561 112.485 0.713491 96.0015 0.0558816V0H93.0675H59.0405H25.0135H23.2312V0.0198824Z" fill="#FFFAF0"/>
<path d="M23.2312 0.0198824L23.2541 1.01962L24.2312 0.997215V0.0198824H23.2312ZM23.2312 50.0626H24.2312V49.0852L23.2541 49.0628L23.2312 50.0626ZM23.2312 50.0825H22.2312V51.0825H23.2312V50.0825ZM96.0015 50.0825V51.0825H97.0015V50.0825H96.0015ZM96.0015 50.0266L95.9616 49.0274L95.0015 49.0657V50.0266H96.0015ZM96.0015 0.0558816H95.0015V1.01678L95.9616 1.05509L96.0015 0.0558816ZM96.0015 0H97.0015V-1H96.0015V0ZM23.2312 0V-1H22.2312V0H23.2312ZM1 25.0413C1 16.0095 2.46708 10.1867 5.83395 6.54377C9.18623 2.91664 14.6426 1.21708 23.2541 1.01962L23.2083 -0.979855C14.4437 -0.778884 8.28449 0.94565 4.36518 5.18631C0.460477 9.41117 -1 15.8999 -1 25.0413H1ZM23.2541 49.0628C14.6426 48.8654 9.18623 47.1658 5.83395 43.5387C2.46708 39.8958 1 34.073 1 25.0413H-1C-1 34.1827 0.460478 40.6713 4.36518 44.8962C8.28449 49.1368 14.4437 50.8613 23.2083 51.0623L23.2541 49.0628ZM24.2312 50.0825V50.0626H22.2312V50.0825H24.2312ZM96.0015 49.0825H23.2312V51.0825H96.0015V49.0825ZM95.0015 50.0266V50.0825H97.0015V50.0266H95.0015ZM117.081 25.0413C117.081 33.8693 115.679 39.6328 112.471 43.2899C109.285 46.9217 104.112 48.7022 95.9616 49.0274L96.0413 51.0258C104.375 50.6933 110.242 48.864 113.974 44.6089C117.685 40.3791 119.081 33.9788 119.081 25.0413H117.081ZM95.9616 1.05509C104.112 1.38025 109.285 3.16078 112.471 6.79252C115.679 10.4497 117.081 16.2132 117.081 25.0413H119.081C119.081 16.1037 117.685 9.70335 113.974 5.4736C110.242 1.21846 104.375 -0.610878 96.0413 -0.943324L95.9616 1.05509ZM95.0015 0V0.0558816H97.0015V0H95.0015ZM93.0675 1H96.0015V-1H93.0675V1ZM59.0405 1H93.0675V-1H59.0405V1ZM25.0135 1H59.0405V-1H25.0135V1ZM23.2312 1H25.0135V-1H23.2312V1ZM24.2312 0.0198824V0H22.2312V0.0198824H24.2312Z" fill="#FFF4DF" mask="url(#path-1-inside-1_1115_1354)"/>
<path opacity="0.4" d="M49 25L58.6422 29.8211C58.7734 29.8867 58.839 29.9195 58.9078 29.9324C58.9687 29.9438 59.0313 29.9438 59.0922 29.9324C59.161 29.9195 59.2266 29.8867 59.3578 29.8211L69 25M49 30L58.6422 34.8211C58.7734 34.8867 58.839 34.9195 58.9078 34.9324C58.9687 34.9438 59.0313 34.9438 59.0922 34.9324C59.161 34.9195 59.2266 34.8867 59.3578 34.8211L69 30" stroke="#FFC653" stroke-width="2" stroke-linecap="round" stroke-linejoin="round"/>
<path d="M59.3578 15.179C59.2266 15.1134 59.161 15.0806 59.0922 15.0677C59.0313 15.0562 58.9687 15.0562 58.9078 15.0677C58.839 15.0806 58.7734 15.1134 58.6422 15.179L49 20.0001L58.6422 24.8212C58.7734 24.8868 58.839 24.9196 58.9078 24.9325C58.9687 24.9439 59.0313 24.9439 59.0922 24.9325C59.161 24.9196 59.2266 24.8868 59.3578 24.8212L69 20.0001L59.3578 15.179Z" stroke="#FFC653" stroke-width="2" stroke-linecap="round" stroke-linejoin="round"/>
<path opacity="0.4" d="M23.25 16.9375V32.9375" stroke="#FFC653" stroke-width="2" stroke-linecap="round" stroke-linejoin="round"/>
<path d="M17 19.9375C17 19.0056 17 18.5397 17.1522 18.1721C17.3552 17.6821 17.7446 17.2927 18.2346 17.0897C18.6022 16.9375 19.0681 16.9375 20 16.9375H30C30.9319 16.9375 31.3978 16.9375 31.7654 17.0897C32.2554 17.2927 32.6448 17.6821 32.8478 18.1721C33 18.5397 33 19.0056 33 19.9375M21 32.9375H29M26.75 16.9375V32.9375" stroke="#FFC653" stroke-width="2" stroke-linecap="round" stroke-linejoin="round"/>
<path opacity="0.4" d="M97 25.1035L90 32.1035C87.5 34.6035 83 35.1035 83 35.1035C83 35.1035 83.5 30.6035 86 28.1035L93 21.1035" stroke="#FFC653" stroke-width="2" stroke-linecap="round" stroke-linejoin="round"/>
<path d="M97 25.1033L102 20.1033C103.105 18.9988 103.105 17.2079 102 16.1033C100.895 14.9988 99.1046 14.9988 98 16.1033L93 21.1033M91.5 19.6033L98.5 26.6033" stroke="#FFC653" stroke-width="2" stroke-linecap="round" stroke-linejoin="round"/>
</svg>
