<svg width="815" height="130" viewBox="0 0 815 130" fill="none" xmlns="http://www.w3.org/2000/svg">
<path d="M768.71 78.0398C765.64 79.4198 764.41 78.4998 764.41 73.1198C764.41 61.8998 768.1 56.5298 773.78 56.5298C780.23 56.5298 784.08 64.0598 784.08 69.2798C784.08 70.3498 783.46 71.1198 782.08 71.7398L768.71 78.0398ZM386.24 76.4998C386.24 68.9698 387.47 57.5998 395.92 57.5998C406.68 57.5998 409.44 79.5698 409.44 88.0298C409.44 96.4798 408.06 106.78 399.61 106.78C389.01 106.77 386.24 84.7998 386.24 76.4998ZM540.21 74.6598C540.21 68.5098 541.44 55.2998 549.89 55.2998C560.65 55.2998 563.41 77.7298 563.41 86.3398C563.41 92.4898 562.03 105.55 553.58 105.55C542.98 105.54 540.21 83.1098 540.21 74.6598ZM214.29 39.9298C192.93 39.9298 174.64 56.9898 174.64 82.6498C174.64 105.55 190.31 121.37 211.21 121.37C232.11 121.37 246.71 105.7 246.71 97.2498C246.71 94.4798 245.17 91.7198 242.1 91.7198C240.41 91.7198 238.72 92.6398 235.95 94.7898C231.49 98.1698 226.88 100.17 221.66 100.17C207.83 100.17 199.53 86.1898 199.53 72.0498C199.53 58.9898 203.22 52.8398 209.06 52.8398C214.28 52.8398 217.82 57.7598 221.81 70.9698C223.19 75.5798 224.73 77.4198 227.19 77.4198C232.41 77.4198 245.17 67.2798 245.17 60.2098C245.17 56.3698 242.1 52.2198 237.64 48.3798C232.27 43.7698 224.59 39.9298 214.29 39.9298ZM549.43 121.37C574.17 121.37 590.77 104.16 590.77 78.9598C590.77 55.1398 576.63 39.7798 554.66 39.7798C529.61 39.7798 513.02 56.9898 513.02 82.3398C513.01 106.16 527 121.37 549.43 121.37ZM667.91 102.47C664.22 102.47 663.15 98.4698 663.15 94.9398V48.6898C663.15 42.2398 660.69 39.9298 657.16 39.9298C655.16 39.9298 652.86 40.5398 650.4 41.6198L637.34 47.3098C631.96 49.6198 630.43 51.7698 630.43 54.6898C630.43 56.5298 631.51 58.3798 634.42 60.0698C636.72 61.6098 637.65 63.2998 637.65 69.8998V88.1898C637.65 96.4898 631.66 98.3298 627.82 98.3298C622.44 98.3298 619.98 95.0998 619.98 87.1098L620.29 48.6898C620.29 42.2398 617.83 39.9298 614.3 39.9298C612.3 39.9298 610 40.5398 607.54 41.6198L594.94 47.1498C589.56 49.4598 588.03 51.6098 588.03 54.5298C588.03 56.3698 589.11 58.2198 592.03 59.9098C594.33 61.4498 595.26 63.1398 595.26 69.7398C595.26 81.1098 594.34 92.3298 594.34 101.7C594.34 113.23 601.72 121.37 612.63 121.37C619.85 121.37 626.46 117.68 634.45 112C635.53 111.23 636.6 110.77 637.52 110.77C638.9 110.77 639.67 111.85 640.44 115.69C641.21 119.68 642.9 121.37 645.82 121.37C647.66 121.37 650.12 120.76 652.43 119.68L665.8 113.53C669.03 111.99 670.72 111.53 672.25 111.53C674.25 111.53 675.17 112.45 675.63 114.45L676.09 116.6C677.01 121.06 679.32 122.59 682.08 122.59C686.23 122.59 688.99 117.52 691.61 117.52C693.45 117.52 694.84 118.6 698.99 119.67C702.83 120.75 707.29 121.36 711.59 121.36C726.96 121.36 738.17 113.68 740.79 103.23C741.25 101.39 741.71 100.92 742.33 100.92C742.95 100.92 743.41 101.07 744.33 102.92C749.86 113.83 761.39 121.36 775.68 121.36C798.58 121.36 812.71 105.84 812.71 96.1598C812.71 93.2398 811.02 90.9398 808.25 90.9398C806.71 90.9398 805.33 91.5498 802.41 94.0098C797.03 98.3098 790.89 100.77 784.74 100.77C773.98 100.77 768.91 93.3898 768.91 90.7798C768.91 89.3998 769.52 88.6298 770.45 88.1698L806.41 72.4998C808.56 71.5798 810.56 70.1998 810.56 66.9698C810.56 64.3598 809.48 61.8998 807.03 57.1398C801.19 45.9198 790.89 39.9298 778.6 39.9298C757.7 39.9298 741.57 58.0598 739.72 77.4198C739.41 80.6498 738.8 81.2598 738.03 81.2598C737.26 81.2598 736.8 80.7998 735.88 79.8798C730.66 75.1198 724.97 71.7398 713.6 67.8898C699 62.9698 696.08 60.3598 696.08 57.5898C696.08 54.8198 699.46 52.9798 704.22 52.9798C709.9 52.9798 715.9 55.4398 720.51 59.7398C726.66 65.4198 729.11 67.2698 731.88 67.2698C734.65 67.2698 736.49 64.9598 736.49 62.3498C736.49 60.9698 736.18 59.4298 735.57 58.0498L730.19 44.5298C728.65 40.5298 726.66 38.3798 723.74 38.3798C721.74 38.3798 720.36 39.1498 718.98 39.9198C717.75 40.6898 717.14 41.1498 715.75 41.1498C711.6 41.1498 708.84 39.9198 701.92 39.9198C683.63 39.9198 671.03 48.6798 671.03 62.0498C671.03 72.0398 678.25 79.7198 695.62 85.8698C712.98 92.0198 714.83 94.7798 714.83 97.6998C714.83 100.77 712.06 103.23 706.38 103.23C697.47 103.23 689.63 99.5398 684.1 90.9398C681.03 86.1798 679.03 84.0198 675.96 84.0198C673.04 84.0198 671.04 86.4798 671.04 90.3198C671.04 92.7798 671.96 95.3898 671.96 97.8498C671.9 100.93 670.52 102.47 667.91 102.47ZM282.21 59.9098C284.51 61.4498 285.44 63.1398 285.44 69.7398C285.44 81.1098 284.52 92.3298 284.52 101.7C284.52 113.23 291.9 121.37 302.81 121.37C310.03 121.37 316.64 117.68 324.63 112C325.71 111.23 326.78 110.77 327.7 110.77C329.08 110.77 329.85 111.85 330.62 115.69C331.39 119.68 333.08 121.37 336 121.37C337.84 121.37 340.3 120.76 342.61 119.68L352.14 115.22C355.37 113.68 357.52 113.22 358.9 113.22C361.05 113.22 361.82 114.6 361.82 116.75C361.82 119.98 363.51 121.36 365.66 121.36C366.89 121.36 368.27 120.9 370.42 119.52L376.1 115.99C377.94 114.76 379.02 114.3 380.09 114.3C381.17 114.3 382.09 114.61 383.16 115.53C388.23 119.68 393.61 121.37 400.06 121.37C420.34 121.37 435.1 102.78 435.1 77.8798C435.1 55.7498 424.8 39.9298 407.9 39.9298C402.68 39.9298 397.3 41.4698 392.84 44.6898C391 46.0698 390.07 46.6898 389.15 46.6898C387.92 46.6898 387.31 45.7698 387.31 44.0798V14.2698C387.31 9.5098 385.31 7.0498 381.78 7.0498C380.24 7.0498 378.09 7.5098 374.86 9.5098L358.57 19.6498C354.88 21.9598 354.11 23.9498 354.11 25.4898C354.11 27.6398 355.49 29.4798 358.57 31.3298C360.87 32.8698 361.8 34.2498 361.8 42.2398V95.8698C361.8 101.4 360.42 102.63 358.11 102.63C354.42 102.63 353.35 98.6398 353.35 95.0998V48.6898C353.35 42.2398 350.89 39.9298 347.36 39.9298C345.36 39.9298 343.06 40.5398 340.6 41.6198L327.54 47.3098C322.16 49.6198 320.63 51.7698 320.63 54.6898C320.63 56.5298 321.71 58.3798 324.62 60.0698C326.92 61.6098 327.85 63.2998 327.85 69.8998V88.1898C327.85 96.4898 321.86 98.3298 318.02 98.3298C312.64 98.3298 310.18 95.0998 310.18 87.1098L310.49 48.6898C310.49 42.2398 308.03 39.9298 304.5 39.9298C302.5 39.9298 300.2 40.5398 297.74 41.6198L285.14 47.1498C279.76 49.4598 278.23 51.6098 278.23 54.5298C278.22 56.3698 279.29 58.2198 282.21 59.9098ZM438.03 99.0898C438.03 105.08 437.57 106.62 434.65 108.46C431.27 110.61 430.04 112.15 430.04 114.45C430.04 117.98 433.11 119.83 438.8 119.83H462.77C468.45 119.83 471.53 117.99 471.53 114.45C471.53 112.14 470.3 110.61 466.92 108.46C464 106.62 463.54 105.08 463.54 99.0898V73.4298C463.54 64.6698 466.31 61.4498 470.61 61.4498C476.6 61.4498 479.22 67.5998 481.67 80.4998C483.51 90.4898 484.28 101.09 484.28 103.24C484.28 106.31 484.13 107.39 482.28 108.46C478.9 110.46 477.67 112.15 477.67 114.45C477.67 118.14 480.13 119.83 485.66 119.83H509.94C515.47 119.83 518.08 118.14 518.08 114.45C518.08 112.14 516.7 110.3 514.09 108.46C512.09 107.08 511.79 106.15 509.48 89.2498C507.94 77.4198 506.56 68.0398 503.03 56.5198C499.5 44.9898 493.66 39.9198 484.74 39.9198C477.67 39.9198 472.91 42.9898 468.14 46.0698C467.06 46.8398 466.14 47.1498 465.37 47.1498C464.45 47.1498 463.53 46.6898 463.53 44.5398V14.2698C463.53 9.5098 461.53 7.0498 458 7.0498C456.46 7.0498 454.31 7.5098 451.08 9.5098L434.8 19.6498C431.11 21.9598 430.34 23.9498 430.34 25.4898C430.34 27.6398 431.72 29.4798 434.8 31.3298C437.1 32.8698 438.03 34.2498 438.03 42.2398V99.0898ZM250.25 99.0898C250.25 105.08 249.79 106.62 246.87 108.46C243.49 110.61 242.26 112.15 242.26 114.45C242.26 117.98 245.33 119.83 251.02 119.83H274.99C280.67 119.83 283.75 117.99 283.75 114.45C283.75 112.14 282.52 110.61 279.14 108.46C276.22 106.62 275.76 105.08 275.76 99.0898V14.2698C275.76 9.5098 273.76 7.0498 270.23 7.0498C268.69 7.0498 266.54 7.5098 263.31 9.5098L247.02 19.6498C243.33 21.9598 242.56 23.9498 242.56 25.4898C242.56 27.6398 243.94 29.4798 247.02 31.3298C249.32 32.8698 250.25 34.2498 250.25 42.2398V99.0898Z" fill="#1F1F1A" style="fill:#1F1F1A;fill:color(display-p3 0.1216 0.1216 0.1020);fill-opacity:1;"/>
<path d="M40.22 52.29C42.31 59.22 44.84 65.72 47.59 71.99C52.32 83.22 55.51 89.16 59.92 96.53C65.31 105.33 71.26 115.35 81.05 121.84C88.2 126.57 96.9 128.99 105.26 128.99C117.04 128.99 127.16 123.82 133.66 117.76C140.04 111.82 148.3 100.37 148.3 78.03C148.3 70.33 151.71 63.72 154.24 58.44C154.24 58.33 154.35 58.11 154.57 57.67C155.56 55.47 156.77 52.61 156.77 49.75C156.77 47.66 156.22 45.24 154.79 43.15C152.59 39.41 148.63 38.09 144.99 38.09C136.52 38.09 130.68 44.03 127.71 50.09L126.72 52.07C125.51 50.31 124.3 48.44 123.31 46.79C120.23 41.4 118.47 37.77 116.93 33.14C115.72 29.51 114.73 25.33 114.07 21.91C112.2 11.12 109.12 7.6 104.05 6.28C100.31 5.29 95.91 6.06 92.71 8.15C90.52 3.2 86.78 1 81.82 1C74.78 1 68.4 5.62 68.4 13.44C68.4 14.43 68.51 15.42 68.62 16.63C67.74 16.41 66.75 16.3 65.76 16.3C58.17 16.3 52.55 21.58 52.55 28.74C52.55 30.39 52.77 32.26 53.32 34.46C52.66 34.35 52 34.35 51.34 34.35C47.6 34.57 44.19 36 41.76 38.97C39.34 41.83 38.35 46.23 40.22 52.29Z" fill="#1F1F1A" style="fill:#1F1F1A;fill:color(display-p3 0.1216 0.1216 0.1020);fill-opacity:1;"/>
<path d="M46.5 50.3105C45.51 47.1205 45.62 44.7005 46.83 43.1605C48.04 41.7305 49.69 41.0705 51.67 40.9605C55.08 40.8505 56.4 43.2705 58.38 49.5405C59.59 53.5005 62.01 59.2305 63.44 62.4205C65.31 66.2705 67.95 71.4405 69.16 73.2105C70.15 74.7505 71.03 75.1905 72.02 75.1905C73.78 75.1905 75.1 74.2005 75.1 72.4405C75.1 71.4505 74.11 69.8005 73.56 68.8105C72.57 66.9405 70.48 63.2005 69.05 60.0105C67.51 56.4905 65.75 52.0905 64.32 48.1205C63.44 45.8105 62.45 42.5105 61.46 39.2105C59.92 34.1505 59.15 31.0705 59.15 28.7505C59.15 25.2305 61.79 22.9205 65.75 22.9205C68.61 22.9205 70.48 24.3505 71.69 29.5205C72.68 34.2505 74.44 41.9605 76.97 48.0105C78.62 51.9705 81.04 57.2605 82.47 59.9005C83.35 61.4405 84.34 62.7605 84.34 63.3105C84.34 64.0805 82.91 65.2905 81.7 66.9405C80.93 67.9305 80.6 68.5905 80.6 69.3605C80.6 70.0205 81.04 70.6805 81.7 71.5605C82.36 72.4405 83.02 73.3205 83.79 73.3205C84.34 73.3205 84.67 73.1005 85 72.6605C88.41 68.3705 92.15 65.4005 96.45 62.9705C101.51 60.1105 106.69 58.6805 110.76 57.8005C112.74 57.3605 113.29 56.9205 113.29 55.8205C113.29 54.5005 112.3 53.7305 110.98 53.6205C109.99 53.5105 109.11 53.6205 107.57 53.7305C106.47 53.8405 105.92 53.2905 105.26 51.8605C103.28 47.6805 99.43 40.6305 97.12 31.6105C96.13 27.7605 95.25 23.6905 94.7 18.4005C94.37 15.9805 94.81 15.1005 96.02 14.0005C97.56 12.6805 100.31 12.1305 102.4 12.6805C104.93 13.3405 106.25 15.3205 107.57 23.0305C108.23 26.6605 109.33 31.2805 110.65 35.2505C112.3 40.3105 114.39 44.5005 117.58 50.1105C119.34 53.1905 121.54 56.3805 123.85 59.4705C123.41 60.7905 122.64 61.6705 120.11 63.7605C117.58 65.8505 115.05 68.0505 112.74 72.1205C111.09 75.0905 110.32 78.3905 110.32 80.5905C110.32 82.6805 110.76 83.1205 112.08 83.1205C114.39 83.1205 116.26 82.6805 116.37 81.6905C116.92 77.7305 117.58 75.2005 119.78 72.2205C121.1 70.5705 123.41 68.4805 125.28 66.8305C128.8 63.9705 130.01 62.3205 131.22 58.2505C131.77 56.3805 132.43 54.6205 133.31 52.9705C135.4 49.1205 139.14 44.7205 144.98 44.7205C146.85 44.7205 148.39 45.2705 149.38 46.8105C149.93 47.6905 150.15 48.9005 150.15 49.7805C150.15 51.7605 148.72 54.5105 148.06 55.8305C145.64 61.0005 141.68 68.9305 141.68 78.0605C141.68 97.9805 134.64 107.89 129.13 112.95C123.74 118.01 115.26 122.42 105.25 122.42C98.1 122.42 90.72 120.33 84.67 116.37C76.2 110.76 70.91 101.95 65.52 93.1505C61.23 86.0005 58.26 80.3805 53.63 69.4905C51.01 63.1805 48.59 57.0205 46.5 50.3105Z" fill="#C5C5C5" style="fill:#C5C5C5;fill:color(display-p3 0.7724 0.7724 0.7724);fill-opacity:1;"/>
<path d="M74.78 13.4404C74.78 9.26035 78.63 7.61035 81.82 7.61035C85.23 7.61035 86.44 9.26035 87.32 12.7804C88.09 15.6404 88.42 18.2804 88.75 21.3604C89.19 24.4404 90.73 31.4904 91.17 33.2504C92.82 39.3004 96.12 46.4604 100.08 55.0404C97.77 55.8104 94.69 57.1304 92.6 58.2304C89.96 59.6604 89.41 59.6604 88.31 57.5704C86 53.2804 84.35 50.0904 82.92 46.3404C81.71 43.2604 80.5 39.7404 79.51 35.6604C77.86 28.7304 77.64 26.7504 76.32 23.5504C75.55 20.2604 74.78 16.1904 74.78 13.4404Z" fill="#C5C5C5" style="fill:#C5C5C5;fill:color(display-p3 0.7724 0.7724 0.7724);fill-opacity:1;"/>
<path d="M35.38 87.1196C33.05 88.5596 20.7 95.0296 17.91 96.0596C15.92 96.7996 13.76 96.6196 12.49 92.8596C10.93 88.2096 13.12 87.1096 16.24 85.8996C19 84.8296 30.45 80.6896 33.11 79.9696C34.98 79.4696 36.28 80.0996 37.18 82.3496C38.17 84.8196 37.5 85.8096 35.38 87.1196Z" fill="#1F1F1A" style="fill:#1F1F1A;fill:color(display-p3 0.1216 0.1216 0.1020);fill-opacity:1;"/>
<path d="M25.2 60.91C21.88 61 8.08997 60.41 4.93997 60.1C2.19997 59.83 1.09997 58.62 1.39997 54.65C1.71997 50.39 3.37997 50.13 6.06997 50.39C9.18997 50.69 23.64 53.04 25.94 53.75C28.32 54.49 28.65 55.57 28.36 57.65C27.98 60.35 26.77 60.86 25.2 60.91Z" fill="#1F1F1A" style="fill:#1F1F1A;fill:color(display-p3 0.1216 0.1216 0.1020);fill-opacity:1;"/>
<path d="M26.9101 32.9896C23.1101 31.7896 11.8301 24.9596 8.89011 23.1996C6.23011 21.5996 5.89011 20.1596 7.74011 16.6496C9.38011 13.5496 11.2001 13.0096 13.9001 14.4096C17.0301 16.0396 28.0801 24.6396 30.1901 26.3396C32.2301 27.9796 31.9501 28.8296 30.8801 30.9396C29.8101 33.0496 28.8101 33.5896 26.9101 32.9896Z" fill="#1F1F1A" style="fill:#1F1F1A;fill:color(display-p3 0.1216 0.1216 0.1020);fill-opacity:1;"/>
</svg>
