<svg width="51" height="51" viewBox="0 0 51 51" fill="none" xmlns="http://www.w3.org/2000/svg">
<path d="M0.5 25.1038C0.5 15.7409 2.0652 9.65803 5.82543 5.89362C9.58551 2.12936 15.6612 0.5625 25.0135 0.5625C34.3657 0.5625 40.4414 2.12936 44.2015 5.89362C47.9618 9.65803 49.527 15.7409 49.527 25.1038C49.527 34.4666 47.9618 40.5494 44.2015 44.3138C40.4414 48.0781 34.3657 49.6449 25.0135 49.6449C15.6612 49.6449 9.58551 48.0781 5.82543 44.3138C2.0652 40.5495 0.5 34.4666 0.5 25.1038Z" fill="#FFFAF0" stroke="#FFF4DF"/>
<path opacity="0.4" d="M34 34.1035L30.5001 30.6035" stroke="#FFC653" stroke-width="2" stroke-linecap="round" stroke-linejoin="round"/>
<path d="M24.5 33.1035C29.1944 33.1035 33 29.2979 33 24.6035C33 19.9091 29.1944 16.1035 24.5 16.1035C19.8056 16.1035 16 19.9091 16 24.6035C16 29.2979 19.8056 33.1035 24.5 33.1035Z" stroke="#FFC653" stroke-width="2" stroke-linecap="round" stroke-linejoin="round"/>
</svg>
