<svg width="51" height="51" viewBox="0 0 51 51" fill="none" xmlns="http://www.w3.org/2000/svg">
<path d="M1.20312 25.1038C1.20312 15.7409 2.76832 9.65803 6.52856 5.89362C10.2886 2.12936 16.3643 0.5625 25.7166 0.5625C35.0689 0.5625 41.1446 2.12936 44.9046 5.89362C48.6649 9.65803 50.2301 15.7409 50.2301 25.1038C50.2301 34.4666 48.6649 40.5494 44.9046 44.3138C41.1446 48.0781 35.0689 49.6449 25.7166 49.6449C16.3643 49.6449 10.2886 48.0781 6.52856 44.3138C2.76832 40.5495 1.20312 34.4666 1.20312 25.1038Z" fill="#FFFAF0" stroke="#FFF4DF"/>
<path opacity="0.4" d="M22.7166 30.6035H17.2166M20.2166 25.1035H15.7166M22.7166 19.6035H17.7166" stroke="#FFC653" stroke-width="2" stroke-linecap="round" stroke-linejoin="round"/>
<path d="M30.7166 16.1035L24.1202 25.3385C23.8282 25.7473 23.6822 25.9516 23.6886 26.122C23.6941 26.2704 23.7652 26.4086 23.8827 26.4993C24.0177 26.6035 24.2689 26.6035 24.7712 26.6035H29.7166L28.7166 34.1035L35.313 24.8685C35.605 24.4598 35.751 24.2554 35.7447 24.085C35.7392 23.9366 35.668 23.7984 35.5505 23.7077C35.4155 23.6035 35.1644 23.6035 34.6621 23.6035H29.7166L30.7166 16.1035Z" stroke="#FFC653" stroke-width="2" stroke-linecap="round" stroke-linejoin="round"/>
</svg>
